<?xml version="1.0" encoding="iso-8859-1"?>
<!-- Free Icon Download www.onlinewebfonts.com -->
<!DOCTYPE svg PUBLIC "-//W3C//DTD SVG 1.1//EN" "http://www.w3.org/Graphics/SVG/1.1/DTD/svg11.dtd">
<svg version="1.1" id="Capa_1" xmlns="http://www.w3.org/2000/svg" xmlns:xlink="http://www.w3.org/1999/xlink" x="0px" y="0px"
	 width="502.804px" height="502.804px" viewBox="0 0 502.804 502.804" style="enable-background:new 0 0 502.804 502.804;"
	 xml:space="preserve">
<g>
	<path d="M16.251,457.771c0,0,26.278,3.883,26.278-7.468c0-11.352-36.127-7.163-17.614-34.636
		c18.379-27.272,88.396-44.093,96.868-96.477c0.067-0.382,0.124-0.774,0.182-1.166c3.576-14.641,22.845,35.381,17.92,52.402
		c-4.924,17.021-0.449,41.654,12.097,55.09c12.546,13.435,38.068,50.614,50.165,26.421c11.647-19.708-48.817-25.082-33.593-70.322
		c8.061-13.885,26.871-34.043,31.355-87.784c21.497,24.184,70.323,38.518,102.118,33.593c8.826,5.088-19.259,125.862-0.449,129.888
		c18.81,4.035,35.381,6.723,35.381-5.823c0,0-1.348-11.198-17.47-11.647c0,0-4.925-14.783,2.237-18.81
		c7.162-4.035,6.272,21.047,21.496,27.77s25.532,5.824,25.532-6.723c0-12.546-29.558-8.061-30.457-36.729
		c-0.898-28.668,9.706-61.955,23.438-83.155c13.731-21.2,37.025-80.325,33.439-118.843c-3.586-38.518,43.003-30.457,51.953-28.668
		c8.96,1.789,55.539,4.476,55.539-23.294c0,0,3.586-26.871-25.981-26.871c0,0-12.536-7.163-14.334-18.81
		c-1.788-11.647-9.85-17.92-16.122-18.81l1.568-36.729l-23.065,24.863l5.374-32.905c0,0-78.833,123.624-181.85,144.222
		c-103.017,20.607-196.175,18.81-206.034,18.81s-13.436,10.748-7.163,15.223c6.273,4.476,48.377-1.788,47.478,7.163
		c-0.899,8.95-35.831,35.831-31.355,73.459s-11.618,34.043-19.24,46.579C15.955,369.987-21.368,457.771,16.251,457.771z"/>
</g>
<g>
</g>
<g>
</g>
<g>
</g>
<g>
</g>
<g>
</g>
<g>
</g>
<g>
</g>
<g>
</g>
<g>
</g>
<g>
</g>
<g>
</g>
<g>
</g>
<g>
</g>
<g>
</g>
<g>
</g>
</svg>
